<svg width="22" height="16" viewBox="0 0 22 16" fill="none" xmlns="http://www.w3.org/2000/svg">
<path d="M8.73159 1.3059C10.2706 1.06356 11.8377 1.06356 13.3768 1.3059L13.8251 0.385069C13.8251 0.223521 13.9694 0.191202 14.1456 0.223511C15.454 0.466921 16.7286 0.868326 17.9418 1.419C18.0712 1.47204 18.1824 1.56184 18.2621 1.67748C19.6559 3.72955 20.5955 6.0601 21.0171 8.5109C21.2649 9.98872 21.3294 11.4919 21.2093 12.9858C21.2056 13.0786 21.1807 13.1692 21.1362 13.2505C21.0917 13.3319 21.029 13.4016 20.9532 13.4542C19.4816 14.4936 17.8611 15.3 16.1478 15.8452C16.1165 15.8613 16.0822 15.8707 16.0471 15.8729C16.012 15.8751 15.9767 15.87 15.9437 15.8578C15.9106 15.8457 15.8804 15.8268 15.8549 15.8024C15.8294 15.778 15.8092 15.7486 15.7955 15.7159C15.4911 15.199 15.1546 14.6659 14.8182 14.1005L16.5483 13.2604C16.308 12.9211 16.1798 12.8727 15.8755 13.002C14.327 13.7051 12.6482 14.0686 10.9501 14.0686C9.25189 14.0686 7.57294 13.7051 6.02448 13.002C5.78421 12.8889 5.6881 13.0019 5.4158 13.2604L6.24875 13.6966L7.11377 14.0843L6.96967 14.4074L6.13671 15.7482C6.13671 15.8774 5.97643 15.8774 5.83227 15.7482C4.11147 15.2069 2.48876 14.3886 1.02694 13.325C0.960373 13.2844 0.905004 13.2278 0.865824 13.16C0.826644 13.0923 0.804884 13.0157 0.802668 12.9373C0.55881 10.2505 0.948637 7.54363 1.94006 5.03769C2.42123 3.81924 3.02789 2.65507 3.75008 1.56438C3.81539 1.46855 3.90337 1.39076 4.00622 1.33819C5.24108 0.782138 6.53691 0.375441 7.86656 0.126587C8.02674 0.126587 8.10693 0.12663 8.171 0.272023L8.73159 1.3059ZM16.308 8.7855C16.2769 8.54538 16.2288 8.30783 16.1639 8.07469C16.0844 7.76582 15.923 7.48456 15.6973 7.26094C15.4716 7.03732 15.19 6.87977 14.8824 6.80511C14.5747 6.73045 14.2527 6.74147 13.9509 6.83705C13.649 6.93263 13.3787 7.10922 13.1685 7.34781C12.8026 7.7644 12.6005 8.3017 12.6005 8.85827C12.6005 9.41483 12.8026 9.95214 13.1685 10.3687C13.3393 10.5526 13.5482 10.6962 13.7804 10.7893C14.0125 10.8824 14.2623 10.9226 14.5116 10.9072C14.761 10.8918 15.0038 10.821 15.223 10.7C15.4421 10.579 15.6322 10.4107 15.7794 10.2071C16.1062 9.80497 16.2919 9.30518 16.308 8.7855ZM9.53247 8.7855C9.49075 8.51808 9.43192 8.25368 9.3563 7.99394C9.25403 7.67662 9.06666 7.394 8.81508 7.17733C8.56349 6.96065 8.25746 6.81834 7.9307 6.76616C7.62728 6.71188 7.31478 6.74708 7.03067 6.86742C6.74657 6.98777 6.50291 7.18823 6.32892 7.44473C6.01292 7.86326 5.85265 8.38036 5.87607 8.90589C5.89949 9.43142 6.10504 9.93197 6.45699 10.3202C6.61785 10.5055 6.81612 10.654 7.0385 10.7557C7.26088 10.8575 7.50232 10.9101 7.74651 10.9101C7.99069 10.9101 8.23195 10.8575 8.45432 10.7557C8.6767 10.654 8.87497 10.5055 9.03583 10.3202C9.36924 9.88652 9.54466 9.35033 9.53247 8.80167V8.7855Z" fill="#777D8C"/>
</svg>
