<svg width="50" height="52" viewBox="0 0 50 52" fill="none" xmlns="http://www.w3.org/2000/svg">
<path d="M49.9985 6.72941C49.9985 4.94466 49.3138 3.23299 48.0951 1.97098C46.8764 0.708975 45.2235 0 43.5 0C41.7765 0 40.1236 0.708975 38.905 1.97098C37.6863 3.23299 37.0016 4.94466 37.0016 6.72941V22.776C36.718 22.776 36.4108 22.776 36.1391 22.776H24.3946V6.72941C24.3946 4.94466 23.71 3.23299 22.4913 1.97098C21.2726 0.708975 19.6197 0 17.8962 0C16.1727 0 14.5198 0.708975 13.3011 1.97098C12.0824 3.23299 11.3978 4.94466 11.3978 6.72941V23.0207C7.95664 23.722 4.89048 25.7238 2.79588 28.6368C0.70129 31.5497 -0.271924 35.1655 0.0655937 38.7804C0.403111 42.3954 2.02722 45.751 4.62193 48.1945C7.21663 50.6379 10.5963 51.9944 14.1035 52H36.1273C37.9686 51.9937 39.7905 51.6092 41.4873 50.8686C43.1841 50.128 44.7221 49.0461 46.0123 47.6856C47.3024 46.3252 48.3191 44.7131 49.0033 42.9428C49.6876 41.1726 50.0258 39.2793 49.9985 37.3727C49.9985 36.4734 49.9985 6.72941 49.9985 6.72941ZM16.6556 37.3176H10.2812C9.62004 37.3176 8.98593 37.0456 8.5184 36.5615C8.05086 36.0773 7.7882 35.4207 7.7882 34.736C7.7882 34.0513 8.05086 33.3946 8.5184 32.9105C8.98593 32.4263 9.62004 32.1544 10.2812 32.1544H16.6438C17.305 32.1544 17.9391 32.4263 18.4066 32.9105C18.8742 33.3946 19.1368 34.0513 19.1368 34.736C19.1368 35.4207 18.8742 36.0773 18.4066 36.5615C17.9391 37.0456 17.305 37.3176 16.6438 37.3176H16.6556ZM34.3372 37.3176H27.9629C27.3017 37.3176 26.6676 37.0456 26.2 36.5615C25.7325 36.0773 25.4698 35.4207 25.4698 34.736C25.4698 34.0513 25.7325 33.3946 26.2 32.9105C26.6676 32.4263 27.3017 32.1544 27.9629 32.1544H34.3254C34.9866 32.1544 35.6207 32.4263 36.0883 32.9105C36.5558 33.3946 36.8185 34.0513 36.8185 34.736C36.8185 35.4207 36.5558 36.0773 36.0883 36.5615C35.6207 37.0456 34.9866 37.3176 34.3254 37.3176H34.3372Z" fill="#15171C"/>
</svg>
