<svg width="25" height="24" viewBox="0 0 25 24" fill="none" xmlns="http://www.w3.org/2000/svg">
<path d="M17.0921 14C17.1721 13.34 17.2321 12.68 17.2321 12C17.2321 11.32 17.1721 10.66 17.0921 10H20.4721C20.6321 10.64 20.7321 11.31 20.7321 12C20.7321 12.69 20.6321 13.36 20.4721 14M15.3221 19.56C15.9221 18.45 16.3821 17.25 16.7021 16H19.6521C18.6921 17.65 17.1621 18.93 15.3221 19.56ZM15.0721 14H10.3921C10.2921 13.34 10.2321 12.68 10.2321 12C10.2321 11.32 10.2921 10.65 10.3921 10H15.0721C15.1621 10.65 15.2321 11.32 15.2321 12C15.2321 12.68 15.1621 13.34 15.0721 14ZM12.7321 19.96C11.9021 18.76 11.2321 17.43 10.8221 16H14.6421C14.2321 17.43 13.5621 18.76 12.7321 19.96ZM8.73206 8H5.81206C6.76206 6.34 8.30206 5.06 10.1321 4.44C9.53206 5.55 9.08206 6.75 8.73206 8ZM5.81206 16H8.73206C9.08206 17.25 9.53206 18.45 10.1321 19.56C8.30206 18.93 6.76206 17.65 5.81206 16ZM4.99206 14C4.83206 13.36 4.73206 12.69 4.73206 12C4.73206 11.31 4.83206 10.64 4.99206 10H8.37206C8.29206 10.66 8.23206 11.32 8.23206 12C8.23206 12.68 8.29206 13.34 8.37206 14M12.7321 4.03C13.5621 5.23 14.2321 6.57 14.6421 8H10.8221C11.2321 6.57 11.9021 5.23 12.7321 4.03ZM19.6521 8H16.7021C16.3821 6.75 15.9221 5.55 15.3221 4.44C17.1621 5.07 18.6921 6.34 19.6521 8ZM12.7321 2C7.20206 2 2.73206 6.5 2.73206 12C2.73206 14.6522 3.78562 17.1957 5.66099 19.0711C6.58957 19.9997 7.69197 20.7362 8.90522 21.2388C10.1185 21.7413 11.4188 22 12.7321 22C15.3842 22 17.9278 20.9464 19.8031 19.0711C21.6785 17.1957 22.7321 14.6522 22.7321 12C22.7321 10.6868 22.4734 9.38642 21.9709 8.17317C21.4683 6.95991 20.7317 5.85752 19.8031 4.92893C18.8745 4.00035 17.7721 3.26375 16.5589 2.7612C15.3456 2.25866 14.0453 2 12.7321 2Z" fill="#777D8C"/>
</svg>
