<svg width="25" height="24" viewBox="0 0 25 24" fill="none" xmlns="http://www.w3.org/2000/svg">
<path d="M22.2679 4.91205C21.5318 5.24665 20.7383 5.46654 19.9161 5.5717C20.7574 5.06501 21.4075 4.26195 21.7135 3.29637C20.92 3.77438 20.0404 4.10899 19.1131 4.30019C18.3578 3.47801 17.2966 3 16.092 3C13.8454 3 12.0098 4.83556 12.0098 7.10134C12.0098 7.42639 12.0481 7.74187 12.115 8.03824C8.71154 7.86616 5.68095 6.23136 3.66374 3.75526C3.31001 4.35755 3.10924 5.06501 3.10924 5.81071C3.10924 7.23518 3.82626 8.49713 4.93525 9.21415C4.25647 9.21415 3.6255 9.02294 3.071 8.73614C3.071 8.73614 3.071 8.73614 3.071 8.76482C3.071 10.7533 4.48592 12.4168 6.35972 12.7897C6.01555 12.8853 5.65227 12.9331 5.27942 12.9331C5.02129 12.9331 4.76316 12.9044 4.5146 12.8566C5.03085 14.4723 6.53181 15.6769 8.33869 15.7055C6.9429 16.8145 5.17425 17.4646 3.24309 17.4646C2.91804 17.4646 2.59299 17.4455 2.26794 17.4073C4.08439 18.5736 6.245 19.2524 8.55858 19.2524C16.092 19.2524 20.2316 13 20.2316 7.57935C20.2316 7.39771 20.2316 7.22562 20.2221 7.04398C21.0251 6.47036 21.7135 5.74379 22.2679 4.91205Z" fill="#777D8C"/>
</svg>
